# xmcd
#
# Track frame offsets:
#	150
#	15597
#	30597
#	43195
#	59843
#	78061
#	93205
#	108752
#	128248
#	141970
#	156820
#	172463
#	187622
#	207420
#
# Disc length: 2962 seconds
#
# Revision: 1
# Processed by: cddbd v1.5.1PL0 Copyright (c) Steve Scherf et al.
# Submitted via: EasyCDDAExtractor 6.5.7.1
#
DISCID=b80b900e
DTITLE=Cavalinho Branco - Tendo Festa Eu Vou!
DYEAR=2004
DGENRE=Oktoberfest
TTITLE0=Tendo Festa Eu Vou!
TTITLE1=O Ganso
TTITLE2=Ela De Mim Não É A Fim
TTITLE3=Dança Da Hula
TTITLE4=Alemão De Blumenau
TTITLE5=Show De Bunda
TTITLE6=A Marreca Ii - A Vingança
TTITLE7=Bad Boy
TTITLE8=Stammtisxh
TTITLE9=Super Vovó
TTITLE10=Oktoberfest
TTITLE11=Pra Vocês
TTITLE12=A Rosquinha
TTITLE13=A Marreca
EXTD=
EXTT0=
EXTT1=
EXTT2=
EXTT3=
EXTT4=
EXTT5=
EXTT6=
EXTT7=
EXTT8=
EXTT9=
EXTT10=
EXTT11=
EXTT12=
EXTT13=
PLAYORDER=
